<?xml version="1.0" standalone="no"?>
<!DOCTYPE svg PUBLIC "-//W3C//DTD SVG 20010904//EN"
 "http://www.w3.org/TR/2001/REC-SVG-20010904/DTD/svg10.dtd">
<svg version="1.0" xmlns="http://www.w3.org/2000/svg"
 width="189.000000pt" height="189.000000pt" viewBox="0 0 189.000000 189.000000"
 preserveAspectRatio="xMidYMid meet">
<metadata>
Created by potrace 1.14, written by Peter Selinger 2001-2017
</metadata>
<g transform="translate(0.000000,189.000000) scale(0.100000,-0.100000)"
fill="#000000" stroke="none">
<path d="M1240 1739 c0 -8 -5 -43 -10 -79 -5 -36 -12 -94 -15 -130 -3 -36 -8
-76 -10 -90 -2 -14 -7 -54 -11 -90 -4 -36 -8 -72 -9 -80 -1 -8 -6 -51 -10 -95
-5 -44 -9 -82 -10 -85 -4 -15 -18 -176 -17 -182 3 -13 -12 -9 -64 16 -41 21
-62 24 -134 23 -119 -3 -191 -40 -232 -121 -45 -89 0 -195 108 -251 52 -27 67
-30 153 -30 87 0 101 3 143 27 72 43 96 96 113 258 3 30 12 107 20 170 8 63
16 135 19 160 18 172 28 258 31 280 2 14 4 33 4 44 1 16 8 18 64 14 38 -3 86
-15 119 -30 45 -21 59 -33 77 -70 25 -52 27 -111 6 -161 -8 -20 -15 -39 -15
-42 0 -21 56 23 82 66 24 39 28 85 12 141 -20 65 -58 105 -174 181 -78 51 -99
70 -119 110 -19 38 -29 47 -50 47 -14 0 -36 3 -48 6 -16 4 -23 2 -23 -7z"/>
<path d="M753 1390 c-40 -10 -81 -23 -91 -29 -13 -7 -25 -6 -38 3 -21 13 -24
13 -72 2 -32 -8 -62 -46 -62 -81 0 -9 -26 -42 -58 -73 -90 -88 -133 -155 -172
-263 -27 -80 -23 -100 20 -95 37 4 32 -2 53 66 23 76 82 172 146 236 45 45 56
52 76 44 43 -16 115 21 115 61 0 23 19 36 76 55 61 20 253 27 316 12 54 -13
55 -13 62 24 4 24 0 29 -32 39 -68 20 -259 20 -339 -1z m-116 -68 c39 -52 -17
-117 -80 -93 -29 11 -42 41 -33 77 11 44 83 54 113 16z"/>
<path d="M1359 1243 c0 -10 -2 -27 -4 -37 -2 -13 14 -39 45 -73 55 -60 101
-136 124 -205 26 -78 27 -99 6 -126 -26 -33 -26 -86 1 -113 18 -18 20 -28 14
-66 -15 -105 -88 -236 -180 -325 -37 -36 -38 -37 -21 -62 9 -14 20 -26 25 -26
13 0 120 113 152 161 38 58 84 170 99 241 8 40 17 59 30 63 10 3 25 20 33 37
19 38 7 78 -32 111 -19 15 -33 42 -45 87 -26 97 -82 193 -159 276 -72 77 -86
86 -88 57z m293 -464 c19 -24 19 -28 4 -56 -19 -37 -50 -47 -88 -27 -37 19
-41 62 -10 97 23 25 70 18 94 -14z"/>
<path d="M807 1215 c-147 -37 -276 -141 -338 -272 -19 -40 -42 -75 -52 -79
-51 -16 -66 -104 -24 -140 17 -15 28 -36 32 -65 13 -90 90 -238 139 -269 17
-11 23 -9 43 16 l22 29 -23 25 c-51 56 -91 135 -102 205 -4 26 0 38 21 59 29
30 34 86 9 111 -16 15 -15 20 7 68 31 66 120 157 186 191 102 51 218 64 320
35 24 -6 45 -10 47 -8 2 2 6 20 10 40 l6 36 -52 15 c-69 19 -178 20 -251 3z
m-298 -390 c21 -21 16 -66 -9 -87 -30 -25 -68 -19 -92 13 -46 62 44 128 101
74z"/>
<path d="M1329 993 c0 -15 -3 -41 -5 -56 -3 -16 3 -52 12 -80 36 -107 24 -228
-33 -326 -43 -74 -61 -90 -92 -81 -52 15 -103 -24 -113 -85 -9 -58 -232 -67
-341 -15 l-38 18 -24 -26 c-14 -15 -25 -30 -25 -33 0 -9 94 -46 153 -60 57
-14 217 -7 262 12 17 6 56 13 88 14 64 3 107 30 107 69 0 12 16 39 36 61 102
114 145 260 121 415 -7 50 -75 191 -94 198 -8 2 -13 -7 -14 -25z m-87 -595
c32 -36 3 -97 -45 -98 -52 -1 -84 47 -61 92 22 42 73 45 106 6z"/>
<path d="M228 744 c-3 -3 -4 -26 -2 -52 14 -147 77 -291 178 -399 23 -26 30
-42 31 -78 0 -32 7 -51 22 -66 24 -24 87 -33 113 -16 12 7 34 3 82 -16 189
-76 403 -74 570 4 27 12 48 25 48 28 0 3 -8 16 -18 29 l-18 23 -44 -19 c-159
-68 -350 -69 -515 -2 -41 17 -54 27 -64 56 -14 38 -54 64 -98 64 -19 0 -35 9
-50 28 -12 15 -31 38 -43 52 -37 42 -90 165 -104 240 -8 39 -14 73 -15 75 0 3
-1 16 -1 30 0 22 -4 25 -33 25 -19 0 -36 -3 -39 -6z m346 -496 c21 -30 20 -54
-4 -78 -40 -40 -110 -17 -110 37 0 59 81 88 114 41z"/>
</g>
</svg>
